<svg xmlns="http://www.w3.org/2000/svg" xmlns:xlink="http://www.w3.org/1999/xlink" width="32" height="32" viewBox="0 0 32 32"><defs><clipPath id="b"><rect width="32" height="32"/></clipPath></defs><g id="a" clip-path="url(#b)"><rect width="32" height="32" fill="#fff"/><path d="M19.341,13.025h-.681a2.2,2.2,0,0,1-2.186-1.974H7.8a2.2,2.2,0,0,1-2.186,1.974H4.887a2.464,2.464,0,0,1-2.461-2.461V8.349H.577a.577.577,0,1,1,0-1.154H2.426V6.266a6.22,6.22,0,0,1,1-3.618A5.427,5.427,0,0,1,5.853.756,13.713,13.713,0,0,1,11.1,0a13.5,13.5,0,0,1,3.772.618c2.61.856,3.989,2.473,3.989,4.674a.577.577,0,1,1-1.154,0c0-1.678-1.075-2.882-3.195-3.577A12.46,12.46,0,0,0,11.1,1.154a12.772,12.772,0,0,0-4.8.666A4.327,4.327,0,0,0,3.58,6.266v.929H20.648V5.444a2.615,2.615,0,0,1,2.605-2.611l2.339-.005H25.6a3.563,3.563,0,0,1,3.563,3.563V6.51a1.841,1.841,0,0,1-1.839,1.839H21.8v2.215A2.464,2.464,0,0,1,19.341,13.025ZM7.587,9.9h9.1a.932.932,0,0,1,.931.931,1.044,1.044,0,0,0,1.043,1.043h.681a1.309,1.309,0,0,0,1.307-1.307V8.349H3.58v2.215a1.309,1.309,0,0,0,1.307,1.307h.726a1.044,1.044,0,0,0,1.043-1.043A.932.932,0,0,1,7.587,9.9ZM21.8,7.194h5.522a.685.685,0,0,0,.685-.685V6.391A2.409,2.409,0,0,0,25.6,3.982h-.005l-2.339,0A1.459,1.459,0,0,0,21.8,5.444Z" transform="translate(1.837 9.024)" fill="#0c81e8"/></g></svg>