<svg xmlns="http://www.w3.org/2000/svg" width="1200" height="841.316" viewBox="0 0 1200 841.316"><path d="M795.842,535.953H767.807a90.548,90.548,0,0,1-89.954-81.244H320.91a90.547,90.547,0,0,1-89.953,81.244H201.1A101.4,101.4,0,0,1,99.814,434.671V343.534H23.748a23.748,23.748,0,0,1,0-47.5H99.814V257.823c0-59.394,13.877-109.484,41.246-148.875,23.463-33.768,57.032-59.96,99.775-77.848C315.15,0,400.4,0,456.808,0c3.172,0,78.577.289,155.2,25.437C719.389,60.679,776.148,127.188,776.148,217.773a23.747,23.747,0,1,1-47.495,0c0-69.053-44.227-118.581-131.454-147.208-69.486-22.805-139.69-23.07-140.391-23.07-52.612,0-132.121,0-197.639,27.419-75.27,31.5-111.859,91.33-111.859,182.909v38.215H849.629V224a107.6,107.6,0,0,1,107.2-107.429l96.238-.206h.325A146.622,146.622,0,0,1,1200,262.981v4.884a75.755,75.755,0,0,1-75.669,75.669H897.124v91.137A101.4,101.4,0,0,1,795.842,535.953ZM312.2,407.214H686.566a38.364,38.364,0,0,1,38.32,38.322,42.97,42.97,0,0,0,42.921,42.921h28.035a53.847,53.847,0,0,0,53.787-53.786V343.534H147.31v91.137A53.847,53.847,0,0,0,201.1,488.457h29.86a42.969,42.969,0,0,0,42.92-42.921A38.365,38.365,0,0,1,312.2,407.214ZM897.124,296.038h227.207a28.207,28.207,0,0,0,28.174-28.173v-4.884a99.123,99.123,0,0,0-99.117-99.124h-.219l-96.238.205A60.028,60.028,0,0,0,897.124,224Z" fill="#0c81e8"/><path d="M143.192,720.421c0,38.822-28.661,68.785-63.574,68.785-19.02,0-32.829-7.035-42.209-19.02v15.373H3.8V603.174H37.409v67.482c9.38-11.985,23.189-19.02,42.209-19.02C114.531,651.636,143.192,681.6,143.192,720.421Zm-33.611,0c0-21.886-15.373-36.737-36.216-36.737-20.584,0-35.956,14.851-35.956,36.737s15.372,36.738,35.956,36.738C94.208,757.159,109.581,742.307,109.581,720.421Z" fill="#041a57"/><path d="M226.826,758.722c13.027,0,23.449-5.472,29.181-13.027l27.1,15.632c-12.245,17.718-31.787,27.879-56.8,27.879-43.773,0-71.391-29.963-71.391-68.785s27.879-68.785,68.785-68.785c38.561,0,65.919,30.485,65.919,68.785a77.6,77.6,0,0,1-1.3,13.809H190.088C194.778,751.427,209.108,758.722,226.826,758.722Zm29.181-50.546c-4.169-18.76-18.238-26.316-32.308-26.316-17.978,0-30.224,9.64-34.132,26.316Z" fill="#041a57"/><path d="M425.362,655.284l-49.5,130.275h-38.3l-49.5-130.275h37l31.526,91.192,31.787-91.192Z" fill="#041a57"/><path d="M563.711,655.284V785.559H530.1V770.186c-9.38,11.725-23.45,19.02-42.47,19.02-34.653,0-63.313-29.963-63.313-68.785s28.66-68.785,63.313-68.785c19.02,0,33.09,7.3,42.47,19.02V655.284ZM453.76,625.06a17.906,17.906,0,0,1,17.717-17.717,17.682,17.682,0,0,1,17.457,17.717,17.458,17.458,0,0,1-17.457,17.457A17.682,17.682,0,0,1,453.76,625.06ZM530.1,720.421c0-21.886-15.373-36.737-36.217-36.737-20.583,0-35.955,14.851-35.955,36.737s15.372,36.738,35.955,36.738C514.728,757.159,530.1,742.307,530.1,720.421ZM503.264,625.06a17.906,17.906,0,0,1,17.717-17.717,17.682,17.682,0,0,1,17.457,17.717,17.457,17.457,0,0,1-17.457,17.457A17.682,17.682,0,0,1,503.264,625.06Z" fill="#041a57"/><path d="M716.391,655.284V779.3c0,42.73-33.611,62.011-68,62.011-27.879,0-50.286-10.683-61.75-31.787l28.66-16.415c5.472,10.162,14.07,18.239,34.132,18.239,21.1,0,34.132-11.464,34.132-32.048V765.236c-9.119,12.246-23.189,19.8-41.688,19.8-37,0-64.877-29.963-64.877-66.7,0-36.477,27.879-66.7,64.877-66.7,18.5,0,32.569,7.556,41.688,19.8V655.284Zm-32.829,63.053c0-20.583-15.373-35.435-36.477-35.435s-36.477,14.852-36.477,35.435c0,20.844,15.372,35.7,36.477,35.7S683.562,739.181,683.562,718.337Z" fill="#041a57"/><path d="M801.588,758.722c13.028,0,23.45-5.472,29.182-13.027l27.1,15.632c-12.246,17.718-31.787,27.879-56.8,27.879-43.772,0-71.39-29.963-71.39-68.785s27.879-68.785,68.785-68.785c38.561,0,65.919,30.485,65.919,68.785a77.6,77.6,0,0,1-1.3,13.809H764.851C769.541,751.427,783.871,758.722,801.588,758.722Zm29.182-50.546c-4.169-18.76-18.239-26.316-32.308-26.316-17.978,0-30.224,9.64-34.132,26.316Z" fill="#041a57"/><path d="M879.569,595.358H913.18v190.2H879.569Z" fill="#041a57"/><path d="M1035.176,747.518c0,28.14-24.492,41.688-52.371,41.688-26.055,0-45.335-10.943-54.715-31.005l29.181-16.415c3.648,10.683,12.507,16.936,25.534,16.936,10.683,0,17.978-3.648,17.978-11.2,0-19.02-67.222-8.6-67.222-54.454,0-26.576,22.668-41.428,49.505-41.428,21.1,0,39.343,9.641,49.5,27.619l-28.66,15.633c-3.909-8.338-11.2-13.288-20.844-13.288-8.338,0-15.112,3.647-15.112,10.682C967.954,711.563,1035.176,699.577,1035.176,747.518Z" fill="#041a57"/><path d="M1115.864,758.722c13.027,0,23.449-5.472,29.181-13.027l27.1,15.632c-12.245,17.718-31.787,27.879-56.8,27.879-43.772,0-71.391-29.963-71.391-68.785s27.879-68.785,68.785-68.785c38.562,0,65.919,30.485,65.919,68.785a77.6,77.6,0,0,1-1.3,13.809h-98.227C1083.816,751.427,1098.147,758.722,1115.864,758.722Zm29.181-50.546c-4.168-18.76-18.238-26.316-32.308-26.316-17.978,0-30.223,9.64-34.132,26.316Z" fill="#041a57"/></svg>